<svg xmlns:dc="http://purl.org/dc/elements/1.1/" xmlns:cc="http://creativecommons.org/ns#" xmlns:rdf="http://www.w3.org/1999/02/22-rdf-syntax-ns#" xmlns:svg="http://www.w3.org/2000/svg" xmlns="http://www.w3.org/2000/svg" xmlns:sodipodi="http://sodipodi.sourceforge.net/DTD/sodipodi-0.dtd" xmlns:inkscape="http://www.inkscape.org/namespaces/inkscape" version="1.1" sodipodi:docname="shellext-skype-presence-away-alert-symbolic.svg" inkscape:version="0.48.5 r10040" x="0px" y="0px" width="24px" height="24px" viewBox="-402.5 403.5 24 24" enable-background="new -402.5 403.5 24 24" xml:space="preserve">
  <metadata>
    <rdf:RDF>
      <cc:Work rdf:about="">
        <dc:format>image/svg+xml</dc:format>
        <dc:type rdf:resource="http://purl.org/dc/dcmitype/StillImage"/>
        <dc:title>
          Skype Symbolic Icon Theme
        </dc:title>
      </cc:Work>
    </rdf:RDF>
  </metadata>
  <title>
    Skype Symbolic Icon Theme
  </title>
  <defs>
    <clipPath id="clipPath3939">
      <path d="m101 277 0 16 7 0L108 284.8c0-0.42 0.41-0.8 0.8-0.8l8.2 0L117 277z" inkscape:connector-curvature="0"/>
    </clipPath>
  </defs>
  <g inkscape:label="status" transform="translate(-101,-277)" inkscape:groupmode="layer">
    <path inkscape:connector-curvature="0" d="m 117,289 q 0,1.66 -1.17,2.83 -1.17,1.17 -2.83,1.17 -1.61,0 -2.77,-1.11 -0.64,0.11 -1.23,0.11 -1.42,0 -2.72,-0.55 -1.3,-0.55 -2.23,-1.49 -0.94,-0.94 -1.49,-2.23 Q 102,286.42 102,285 q 0,-0.59 0.11,-1.23 Q 101,282.61 101,281 q 0,-1.66 1.17,-2.83 1.17,-1.17 2.83,-1.17 1.61,0 2.77,1.11 0.64,-0.11 1.23,-0.11 1.42,0 2.72,0.55 1.3,0.55 2.23,1.49 0.94,0.94 1.49,2.23 0.55,1.3 0.55,2.72 0,0.59 -0.11,1.23 1.12,1.17 1.12,2.78 z m -4.53,-2.97 -2.47,-1.61 V 282 q 0,-0.41 -0.3,-0.7 -0.29,-0.3 -0.71,-0.3 -0.41,0 -0.7,0.3 -0.29,0.29 -0.29,0.7 v 3 0.02 0.02 q -0.02,0.64 0.53,0.94 l 2.89,1.89 q 0.38,0.22 0.8,0.11 0.42,-0.11 0.64,-0.49 0.22,-0.38 0.1,-0.8 -0.12,-0.42 -0.49,-0.64 z" clip-path="url(#clipPath3939)" transform="matrix(1.4981273,0,0,1.4990631,-452.81086,265.25953)" style="fill:#bebebe"/>
    <path d="m -288.19663,692.59744 c -0.73408,0 -1.30337,0.56964 -1.30337,1.30418 l 0,9.2942 c 0,0.73454 0.56929,1.30418 1.31835,1.30418 l 9.3633,0 c 0.73408,0 1.31835,-0.56964 1.31835,-1.30418 l 0,-9.2942 c 0,-0.73454 -0.56929,-1.30418 -1.30337,-1.30418 l -9.3633,0 z m 3.19101,1.48407 2.99626,0 0,5.95128 -2.99626,0 0,-5.95128 z m 0,7.43535 2.99626,0 0,1.48408 -2.99626,0 0,-1.48408 z" inkscape:connector-curvature="0" class="warning" style="fill:#f57900"/>
  </g>
  <g inkscape:label="devices" transform="translate(-101,-277)" inkscape:groupmode="layer"/>
  <g inkscape:label="apps" transform="translate(-101,-277)" inkscape:groupmode="layer"/>
  <g inkscape:label="actions" transform="translate(-101,-277)" inkscape:groupmode="layer"/>
  <g inkscape:label="places" transform="translate(-101,-277)" inkscape:groupmode="layer"/>
  <g inkscape:label="mimetypes" transform="translate(-101,-277)" inkscape:groupmode="layer"/>
  <g inkscape:label="emblems" transform="translate(-101,-277)" inkscape:groupmode="layer"/>
  <g inkscape:label="categories" transform="translate(-101,-277)" inkscape:groupmode="layer"/>
</svg>
