<?xml version="1.0" encoding="utf-8"?>
<svg version="1.1"
	 sodipodi:docname="shellext-skype-presence-offline-alert-symbolic.svg" xmlns:dc="http://purl.org/dc/elements/1.1/" xmlns:cc="http://creativecommons.org/ns#" xmlns:rdf="http://www.w3.org/1999/02/22-rdf-syntax-ns#" xmlns:svg="http://www.w3.org/2000/svg" xmlns:sodipodi="http://sodipodi.sourceforge.net/DTD/sodipodi-0.dtd"
	 xmlns="http://www.w3.org/2000/svg" xmlns:xlink="http://www.w3.org/1999/xlink" x="0px" y="0px" width="240px" height="240px"
	 viewBox="0 0 240 240" xml:space="preserve">
<title>Skype Symbolic Icon Theme</title>
<path fill="#bebebe" d="m 174.71625,240 c -14.09788,-0.28768 -27.01368,-9.16751 -41.3503,-6.51246 C 108.87233,235.10616 83.265226,231.27913 62.558402,217.3042 25.738093,194.60055 2.4390025,150.60528 7.3894139,107.19262 8.4945755,98.194819 7.1116863,89.1457 2.9020251,81.135765 -7.6823649,50.24924 11.837571,13.726439 42.755429,4.1044321 c 15.7648,-6.5374848 34.036704,-5.06976319 48.919941,3.0101398 13.71451,3.0236371 27.75752,-2.1530011 41.58021,0.6328639 58.68237,5.4675582 105.69556,63.9675852 99.44383,122.4343642 -1.22557,10.05905 0.1845,20.2199 4.68458,29.31774 10.25604,31.85845 -10.7747,69.57974 -43.34263,77.45897 -6.25832,1.8966 -12.78112,3.01364 -19.32511,3.04149 z m -1.48988,-27.15539 c 18.66391,2.40302 37.0809,-12.39936 38.87298,-31.12634 2.71339,-12.15495 -5.52094,-22.43482 -6.71905,-34.00188 -1.89463,-19.47073 4.0208,-39.98467 -4.8042,-58.451606 C 190.69385,62.028108 166.10112,41.165613 137.96908,35.01264 120.02024,30.706213 101.44665,37.684636 83.661209,31.977081 70.170004,26.00973 53.467067,23.656554 41.355267,34.16156 25.681429,46.019769 24.08164,69.274319 33.58919,85.492378 c 4.632176,21.742912 -3.655389,44.967742 6.1335,65.855952 10.448127,27.48218 35.897921,47.87654 64.39533,53.83631 18.05403,3.22843 36.84582,-3.15129 54.51863,3.37638 4.87659,1.38248 9.68667,2.99361 14.58972,4.28359 z"/>
<path fill="#bebebe" d="m 85.780368,167.313 c -6.617115,-0.0749 -13.911447,-4.75099 -13.996445,-11.92909 -0.329938,-9.78026 6.373535,-17.89911 12.204981,-25.06418 6.116161,-6.89764 7.090922,-7.61364 9.901194,-10.70409 C 84.287849,109.8359 78.895071,105.23614 72.732737,94.09 70.386054,86.770794 71.816392,76.638467 79.433481,73.020992 c 7.572269,-3.147952 15.743151,1.167428 21.880049,5.491412 6.71037,5.479777 10.1896,8.555779 17.23771,15.544034 9.08237,-8.801808 17.62768,-19.008899 30.07483,-21.644579 6.06951,-1.687433 13.19817,1.267993 15.33389,7.412735 2.84322,6.656542 1.34434,14.490541 -3.03659,20.118406 -5.30096,6.80266 -9.20263,10.68703 -17.61086,19.20345 6.8547,7.21481 15.60735,14.40283 20.16491,23.53089 3.38359,7.35134 2.53221,17.94516 -4.79677,22.59535 -7.07559,4.11491 -15.59695,0.433 -21.72656,-3.75314 -6.79311,-4.59933 -12.18857,-10.18416 -18.23495,-16.29532 -8.22618,8.46983 -16.62706,18.34634 -28.626237,21.55442 -1.407337,0.35782 -2.865586,0.53622 -4.312535,0.53435 z" />
<path fill="#f57900" class="warning" d="M133,121c-7,0-13,6-13,13v93c0,7,6,13,13,13h94c7,0,13-6,13-13v-93c0-7-6-13-13-13H133z M165,136h30v60h-30V136z M165,210h30v15h-30V210z"/>
</svg>
