<svg xmlns:dc="http://purl.org/dc/elements/1.1/" xmlns:cc="http://creativecommons.org/ns#" xmlns:rdf="http://www.w3.org/1999/02/22-rdf-syntax-ns#" xmlns:svg="http://www.w3.org/2000/svg" xmlns="http://www.w3.org/2000/svg" xmlns:sodipodi="http://sodipodi.sourceforge.net/DTD/sodipodi-0.dtd" xmlns:inkscape="http://www.inkscape.org/namespaces/inkscape" version="1.1" sodipodi:docname="shellext-skype-presence-online-symbolic.svg" inkscape:version="0.48.5 r10040" x="0px" y="0px" width="24px" height="24px" viewBox="-402.5 403.5 24 24" enable-background="new -402.5 403.5 24 24" xml:space="preserve">
  <metadata>
    <rdf:RDF>
      <cc:Work rdf:about="">
        <dc:format>image/svg+xml</dc:format>
        <dc:type rdf:resource="http://purl.org/dc/dcmitype/StillImage"/>
        <dc:title>
          Skype Symbolic Icon Theme
        </dc:title>
      </cc:Work>
    </rdf:RDF>
  </metadata>
  <title>
    Skype Symbolic Icon Theme
  </title>
  <g inkscape:label="status" transform="translate(-101,-277)" inkscape:groupmode="layer">
    <path inkscape:connector-curvature="0" d="m -277.5,698.5 q 0,2.49 -1.755,4.245 -1.755,1.755 -4.245,1.755 -2.415,0 -4.155,-1.665 -0.96,0.165 -1.845,0.165 -2.13,0 -4.08,-0.825 -1.95,-0.825 -3.345,-2.235 -1.41,-1.41 -2.235,-3.345 -0.84,-1.965 -0.84,-4.095 0,-0.885 0.165,-1.845 -1.665,-1.74 -1.665,-4.155 0,-2.49 1.755,-4.245 1.755,-1.755 4.245,-1.755 2.415,0 4.155,1.665 0.96,-0.165 1.845,-0.165 2.13,0 4.08,0.825 1.95,0.825 3.345,2.235 1.41,1.41 2.235,3.345 0.84,1.965 0.84,4.095 0,0.885 -0.165,1.845 1.665,1.74 1.665,4.155 z m -6.45,-10.05 q -0.465,-0.45 -1.095,-0.45 -0.63,0 -1.095,0.45 l -4.845,4.875 -1.845,-1.875 q -0.495,-0.45 -1.125,-0.45 -0.63,0 -1.095,0.45 -0.45,0.465 -0.45,1.095 0,0.63 0.45,1.095 l 2.88,2.88 q 0.465,0.465 1.17,0.45 0.705,0.03 1.17,-0.45 l 5.88,-5.88 q 0.45,-0.465 0.45,-1.095 0,-0.63 -0.45,-1.095 z" style="fill:#bebebe"/>
  </g>
  <g inkscape:label="devices" transform="translate(-101,-277)" inkscape:groupmode="layer"/>
  <g inkscape:label="apps" transform="translate(-101,-277)" inkscape:groupmode="layer"/>
  <g inkscape:label="actions" transform="translate(-101,-277)" inkscape:groupmode="layer"/>
  <g inkscape:label="places" transform="translate(-101,-277)" inkscape:groupmode="layer"/>
  <g inkscape:label="mimetypes" transform="translate(-101,-277)" inkscape:groupmode="layer"/>
  <g inkscape:label="emblems" transform="translate(-101,-277)" inkscape:groupmode="layer"/>
  <g inkscape:label="categories" transform="translate(-101,-277)" inkscape:groupmode="layer"/>
</svg>
