<?xml version="1.0" encoding="utf-8"?>
<svg version="1.1"
	 sodipodi:docname="shellext-skype-presence-online-alert-symbolic.svg" xmlns:dc="http://purl.org/dc/elements/1.1/" xmlns:cc="http://creativecommons.org/ns#" xmlns:rdf="http://www.w3.org/1999/02/22-rdf-syntax-ns#" xmlns:svg="http://www.w3.org/2000/svg" xmlns:sodipodi="http://sodipodi.sourceforge.net/DTD/sodipodi-0.dtd"
	 xmlns="http://www.w3.org/2000/svg" xmlns:xlink="http://www.w3.org/1999/xlink" x="0px" y="0px" width="240px" height="240px"
	 viewBox="0 0 240 240" xml:space="preserve">
<title>Skype Symbolic Icon Theme</title>
<path fill="#bebebe" d="m 176.596,240 c -13.48124,-0.11216 -25.37345,-8.72224 -39.20614,-6.92853 -22.31273,1.37509 -45.679584,0.2745 -65.661452,-10.86745 C 31.957124,202.2747 4.6624843,158.68316 7.228127,113.8576 7.6765053,102.88149 9.5302402,91.16405 3.702,81.193 -8.0477902,51.968993 9.2187326,15.906528 38.612589,5.3633982 53.636845,-1.4751688 71.764699,-2.1613973 86.363922,6.2037656 99.843424,11.748968 114.40746,5.5387242 128.39056,7.7615884 181.36247,10.143228 226.61213,56.006435 232.19685,108.0456 c 3.02494,15.62148 -3.30475,32.0831 2.5752,47.17174 14.79131,30.08581 -3.21728,70.0394 -34.85021,80.28352 -7.45107,2.75441 -15.36362,4.45066 -23.32584,4.49914 z m -39.094,-27.674 c 12.81958,-0.77241 24.67059,4.42514 36.77396,7.56667 18.92595,2.35744 38.92249,-10.41663 43.45093,-29.25808 3.87914,-11.8836 1.20136,-24.66265 -4.32064,-35.53972 -4.80171,-20.15706 3.22088,-41.57142 -4.05609,-61.489151 C 202.25105,70.516301 186.90561,49.731009 165.18499,38.5445 148.65072,27.954005 128.55629,25.10909 109.32228,27.423984 96.629691,28.560896 83.925416,26.469993 72.25,21.42 53.22846,15.153343 31.252681,25.936392 23.986064,44.480722 c -6.030737,13.119593 -3.727186,28.347541 2.791561,40.797809 4.214954,19.287239 -2.161597,39.470259 3.250164,58.724829 7.10915,26.58221 26.334476,49.94507 51.860414,60.71386 13.522579,7.39741 29.066097,9.51994 44.261797,7.98078 3.78146,-0.18579 7.56498,-0.37175 11.352,-0.372 z"/>
<path fill="#bebebe" d="m 103.87627,167.561 c -5.343587,-0.77375 -9.432239,-4.95402 -13.417152,-8.28279 -8.0235,-7.83404 -15.970388,-15.89198 -22.484071,-25.0543 -3.444789,-3.68441 -1.944354,-9.08518 1.032198,-12.51821 4.027573,-4.71203 8.663752,-10.28755 15.229021,-10.9667 7.305447,0.54162 11.388032,7.54479 16.438814,11.91791 3.6292,3.70648 7.74096,-0.91367 10.56725,-3.26747 12.68155,-11.44989 23.4371,-25.13152 37.61856,-34.846751 4.67715,-3.301096 11.60151,-5.251048 16.4765,-1.222571 4.61432,3.802825 7.45656,9.564461 8.82943,15.283726 -0.81169,5.052706 -5.40989,8.467316 -8.39374,12.363496 -14.8511,16.2496 -30.61318,31.66804 -46.94998,46.41525 -4.47622,3.51387 -8.55572,7.92533 -13.91328,10.06666 l -1.03455,0.11475 0,-0.003 0.001,0 z" />
<path fill="#f57900" class="warning" d="M133,121c-7,0-13,6-13,13v93c0,7,6,13,13,13h94c7,0,13-6,13-13v-93c0-7-6-13-13-13H133z M165,136h30v60h-30V136z M165,210h30v15h-30V210z"/>
</svg>
