<?xml version="1.0" encoding="utf-8"?>
<svg version="1.1"
	 sodipodi:docname="shellext-skype-presence-online-symbolic.svg" xmlns:dc="http://purl.org/dc/elements/1.1/" xmlns:cc="http://creativecommons.org/ns#" xmlns:rdf="http://www.w3.org/1999/02/22-rdf-syntax-ns#" xmlns:svg="http://www.w3.org/2000/svg" xmlns:sodipodi="http://sodipodi.sourceforge.net/DTD/sodipodi-0.dtd"
	 xmlns="http://www.w3.org/2000/svg" xmlns:xlink="http://www.w3.org/1999/xlink" x="0px" y="0px" width="240px" height="240px"
	 viewBox="0 0 240 240" xml:space="preserve">
<title>Skype Symbolic Icon Theme</title>
<path fill="#bebebe" d="m 174.71625,240 c -14.09788,-0.28768 -27.01368,-9.16751 -41.3503,-6.51246 C 108.87233,235.10616 83.265226,231.27913 62.558402,217.3042 25.738093,194.60055 2.4390025,150.60528 7.3894139,107.19262 8.4945755,98.194819 7.1116863,89.1457 2.9020251,81.135765 -7.6823649,50.24924 11.837571,13.726439 42.755429,4.1044321 c 15.7648,-6.5374848 34.036704,-5.06976319 48.919941,3.0101398 13.71451,3.0236371 27.75752,-2.1530011 41.58021,0.6328639 58.68237,5.4675582 105.69556,63.9675852 99.44383,122.4343642 -1.22557,10.05905 0.1845,20.2199 4.68458,29.31774 10.25604,31.85845 -10.7747,69.57974 -43.34263,77.45897 -6.25832,1.8966 -12.78112,3.01364 -19.32511,3.04149 z m -1.48988,-27.15539 c 18.66391,2.40302 37.0809,-12.39936 38.87298,-31.12634 2.71339,-12.15495 -5.52094,-22.43482 -6.71905,-34.00188 -1.89463,-19.47073 4.0208,-39.98467 -4.8042,-58.451606 C 190.69385,62.028108 166.10112,41.165613 137.96908,35.01264 120.02024,30.706213 101.44665,37.684636 83.661209,31.977081 70.170004,26.00973 53.467067,23.656554 41.355267,34.16156 25.681429,46.019769 24.08164,69.274319 33.58919,85.492378 c 4.632176,21.742912 -3.655389,44.967742 6.1335,65.855952 10.448127,27.48218 35.897921,47.87654 64.39533,53.83631 18.05403,3.22843 36.84582,-3.15129 54.51863,3.37638 4.87659,1.38248 9.68667,2.99361 14.58972,4.28359 z"/>
<path fill="#bebebe" d="m 103.87627,167.561 c -5.343587,-0.77375 -9.432239,-4.95402 -13.417152,-8.28279 -8.0235,-7.83404 -15.970388,-15.89198 -22.484071,-25.0543 -3.444789,-3.68441 -1.944354,-9.08518 1.032198,-12.51821 4.027573,-4.71203 8.663752,-10.28755 15.229021,-10.9667 7.305447,0.54162 11.388032,7.54479 16.438814,11.91791 3.6292,3.70648 7.74096,-0.91367 10.56725,-3.26747 12.68155,-11.44989 23.4371,-25.13152 37.61856,-34.846751 4.67715,-3.301096 11.60151,-5.251048 16.4765,-1.222571 4.61432,3.802825 7.45656,9.564461 8.82943,15.283726 -0.81169,5.052706 -5.40989,8.467316 -8.39374,12.363496 -14.8511,16.2496 -30.61318,31.66804 -46.94998,46.41525 -4.47622,3.51387 -8.55572,7.92533 -13.91328,10.06666 l -1.03455,0.11475 0,-0.003 0.001,0 z" />
</svg>
