<svg xmlns:dc="http://purl.org/dc/elements/1.1/" xmlns:cc="http://creativecommons.org/ns#" xmlns:rdf="http://www.w3.org/1999/02/22-rdf-syntax-ns#" xmlns:svg="http://www.w3.org/2000/svg" xmlns="http://www.w3.org/2000/svg" xmlns:sodipodi="http://sodipodi.sourceforge.net/DTD/sodipodi-0.dtd" xmlns:inkscape="http://www.inkscape.org/namespaces/inkscape" version="1.1" sodipodi:docname="shellext-skype-presence-away-symbolic.svg" inkscape:version="0.48.5 r10040" x="0px" y="0px" width="24px" height="24px" viewBox="-402.5 403.5 24 24" enable-background="new -402.5 403.5 24 24" xml:space="preserve">
  <metadata>
    <rdf:RDF>
      <cc:Work rdf:about="">
        <dc:format>image/svg+xml</dc:format>
        <dc:type rdf:resource="http://purl.org/dc/dcmitype/StillImage"/>
        <dc:title>
          Skype Symbolic Icon Theme
        </dc:title>
      </cc:Work>
    </rdf:RDF>
  </metadata>
  <title>
    Skype Symbolic Icon Theme
  </title>
  <g inkscape:label="status" transform="translate(-101,-277)" inkscape:groupmode="layer">
    <path inkscape:connector-curvature="0" d="m -277.5,698.5 q 0,2.49 -1.755,4.245 -1.755,1.755 -4.245,1.755 -2.415,0 -4.155,-1.665 -0.96,0.165 -1.845,0.165 -2.13,0 -4.08,-0.825 -1.95,-0.825 -3.345,-2.235 -1.41,-1.41 -2.235,-3.345 -0.84,-1.965 -0.84,-4.095 0,-0.885 0.165,-1.845 -1.665,-1.74 -1.665,-4.155 0,-2.49 1.755,-4.245 1.755,-1.755 4.245,-1.755 2.415,0 4.155,1.665 0.96,-0.165 1.845,-0.165 2.13,0 4.08,0.825 1.95,0.825 3.345,2.235 1.41,1.41 2.235,3.345 0.825,1.95 0.825,4.08 0,0.885 -0.165,1.845 1.68,1.755 1.68,4.17 z m -6.795,-4.455 L -288,691.63 V 688 q 0,-0.615 -0.45,-1.05 -0.435,-0.45 -1.065,-0.45 -0.615,0 -1.05,0.45 Q -291,687.385 -291,688 v 4.5 0.03 0.03 q -0.03,0.96 0.795,1.41 l 4.335,2.835 q 0.57,0.33 1.2,0.165 0.63,-0.165 0.96,-0.735 0.33,-0.57 0.15,-1.2 -0.18,-0.63 -0.735,-0.96 z" style="fill:#bebebe"/>
  </g>
  <g inkscape:label="devices" transform="translate(-101,-277)" inkscape:groupmode="layer"/>
  <g inkscape:label="apps" transform="translate(-101,-277)" inkscape:groupmode="layer"/>
  <g inkscape:label="actions" transform="translate(-101,-277)" inkscape:groupmode="layer"/>
  <g inkscape:label="places" transform="translate(-101,-277)" inkscape:groupmode="layer"/>
  <g inkscape:label="mimetypes" transform="translate(-101,-277)" inkscape:groupmode="layer"/>
  <g inkscape:label="emblems" transform="translate(-101,-277)" inkscape:groupmode="layer"/>
  <g inkscape:label="categories" transform="translate(-101,-277)" inkscape:groupmode="layer"/>
</svg>
