<?xml version="1.0" encoding="utf-8"?>
<svg version="1.1"
	 sodipodi:docname="shellext-skype-presence-do-not-disturb-symbolic.svg" xmlns:dc="http://purl.org/dc/elements/1.1/" xmlns:cc="http://creativecommons.org/ns#" xmlns:rdf="http://www.w3.org/1999/02/22-rdf-syntax-ns#" xmlns:svg="http://www.w3.org/2000/svg" xmlns:sodipodi="http://sodipodi.sourceforge.net/DTD/sodipodi-0.dtd"
	 xmlns="http://www.w3.org/2000/svg" xmlns:xlink="http://www.w3.org/1999/xlink" x="0px" y="0px" width="240px" height="240px"
	 viewBox="0 0 240 240" xml:space="preserve">
<title>Skype Symbolic Icon Theme</title>
<path fill="#bebebe" d="M176.791,240c-4.928,0-9.49-0.768-13.56-2.284c-0.599-0.226-1.188-0.466-1.763-0.722
	c-0.307,0.104-0.627,0.157-0.947,0.157c-0.447,0-0.896-0.103-1.31-0.31c-4.788-2.408-10.353-3.016-15.653-3.314
	c-3.902-0.221-7.809-0.25-11.117-0.25c-1.248,0-2.497,0.006-3.745,0.01c-1.256,0.006-2.511,0.01-3.767,0.01h-0.223
	c-5.617-0.002-12.278-0.131-19.082-1.076c-5.601-0.777-11.209-2.008-16.67-3.658c-21.171-6.4-40.774-19.489-55.196-36.855
	c-15.332-18.459-24.702-41.554-26.386-65.029c-0.481-6.703-0.122-13.517,0.194-19.529l0.07-1.303
	c0.283-5.214,0.576-10.608-0.474-15.604c-0.533-2.536-1.598-4.915-2.727-7.433l-0.124-0.276c-1.279-2.854-2.303-6.01-3.043-9.378
	c-1.387-6.309-1.638-12.838-0.749-19.411C2.098,42.095,7.167,30.78,14.793,21.881c6.908-8.057,16.566-14.278,28.708-18.488
	C49.997,1.141,56.446,0,62.669,0c6.084,0,11.93,1.098,17.373,3.265c1.312,0.521,2.569,1.112,3.785,1.683
	c1.443,0.676,2.805,1.317,4.203,1.824c2.493,0.909,5.169,1.466,7.954,1.658c0.826,0.058,1.666,0.085,2.57,0.085
	c2.766,0,5.501-0.262,8.396-0.539c2.368-0.226,4.817-0.46,7.289-0.538c1.584-0.051,3.177-0.076,4.732-0.076
	c11.798,0,22.88,1.461,32.938,4.344c10.497,3.009,20.62,7.798,30.087,14.234c18.381,12.498,33.281,30.645,41.958,51.099
	c4.712,11.105,7.609,22.757,8.614,34.633c0.602,7.113,0.309,14.15-0.014,19.487l-0.085,1.382
	c-0.345,5.571-0.703,11.331,0.321,16.622c0.531,2.747,1.742,5.448,2.809,7.831c1.408,3.141,2.426,6.148,3.111,9.195
	c1.365,6.071,1.646,12.492,0.84,19.08c-1.443,11.773-6.344,23.234-13.795,32.273c-7.037,8.536-17.006,15.082-28.83,18.928
	C189.729,238.813,182.955,240,176.791,240L176.791,240z M137.496,212.248c1.609,0,3.096,0.031,4.545,0.1
	c6.536,0.303,12.672,1.734,18.755,4.377c5.13,2.228,11.09,3.405,17.236,3.405c1.739,0,3.502-0.095,5.241-0.28
	c4.179-0.445,7.815-1.41,10.809-2.865c0.712-0.346,1.344-0.43,1.808-0.445c4.456-2.471,9.025-5.301,12.618-9.133
	c3.293-3.514,6.004-8.025,8.057-13.408c3.969-10.4,3.94-21.643-0.078-31.66c-0.371-0.928-0.781-1.836-1.189-2.745
	c-0.81-1.798-1.646-3.658-2.24-5.7c-0.819-2.811-1.245-5.921-1.34-9.787c-0.121-5.002,0.151-10.029,0.416-14.891
	c0.078-1.443,0.156-2.885,0.225-4.324c0.277-5.856,0.443-12.124-0.215-18.299c-0.58-5.434-1.945-11.045-4.176-17.152
	c-4.199-11.5-9.781-21.528-16.591-29.808c-6.367-7.74-14.831-14.607-25.874-20.992c-11.299-6.532-21.774-10.27-32.027-11.425
	c-2.672-0.301-5.551-0.447-8.805-0.447c-3.723,0-7.545,0.192-11.242,0.377c-3.77,0.189-7.667,0.387-11.54,0.387
	c-2.273,0-4.344-0.065-6.329-0.202c-3.5-0.239-6.659-0.699-9.658-1.404c-3.115-0.732-6.046-1.854-8.88-2.938l-0.183-0.07
	c-5.772-2.206-11.154-3.278-16.449-3.278l-0.546,0.004c-10.155,0.143-20.066,4.437-27.192,11.78
	c-7.066,7.28-11.354,16.869-12.072,27c-0.38,5.355,0.229,10.805,1.759,15.758c0.656,2.12,1.561,4.15,2.52,6.3l0.619,1.393
	c1.388,3.154,2.234,6.271,2.586,9.526c0.6,5.539,0.329,11.133,0.067,16.543c-0.049,0.997-0.097,1.991-0.139,2.981
	c-0.288,6.708-0.492,12.757-0.067,18.878c0.431,6.201,1.428,12.035,2.965,17.34c1.499,5.178,3.694,10.396,6.712,15.954
	c5.912,10.888,12.812,19.822,20.509,26.556c7.564,6.617,16.899,12.172,29.378,17.484c4.821,2.053,10.591,4.271,16.828,5.162
	c3.219,0.459,6.757,0.683,10.818,0.683c2.193,0,4.523-0.062,7.553-0.195c1.149-0.052,2.3-0.106,3.448-0.164
	C129.848,212.438,133.685,212.248,137.496,212.248L137.496,212.248z M98.412,138.089c-5.228,0.001-11.409-0.058-17.612-0.479
	l-0.779-0.051c-3.983-0.26-8.87-0.576-12.604-3.547c-0.731-0.279-1.281-0.885-2.072-1.775l-0.23-0.228
	c-0.457-0.452-0.912-0.905-0.974-0.974l-0.11-0.106c-0.971-0.96-1.962-1.938-2.255-3.087c-0.824-1.137-1.575-2.413-2.121-3.827
	c-1.249-3.233-1.002-6.666,0.712-9.923c1.417-2.688,3.57-5.133,6.225-7.068c3.171-2.312,6.767-3.052,9.196-3.407
	c5.364-0.784,10.837-0.807,16.132-0.83c1.057-0.005,2.111-0.01,3.16-0.021c4.132-0.042,8.264-0.046,12.395-0.046l6.988-0.001
	c2.968-0.003,5.938-0.016,8.908-0.026c3.514-0.014,7.029-0.027,10.544-0.027c7.769,0,13.745,0.069,19.378,0.226
	c3.566,0.099,6.697,0.286,9.572,0.571c3.172,0.314,6.489,0.88,9.256,2.876c2.339,1.687,4.146,3.937,5.943,6.288
	c2.514,3.29,3.547,6.588,3.066,9.802c-0.445,2.973-2.079,5.949-4.857,8.846c-2.363,2.463-5.068,4.161-8.041,5.047
	c-3.184,0.949-6.465,1.184-9.553,1.343c-3.143,0.161-6.319,0.219-9.391,0.273c-5.795,0.104-11.861,0.151-19.766,0.151
	c-3.455,0-6.91-0.01-10.365-0.018c-2.879-0.008-5.759-0.016-8.639-0.018h-0.476c-1.928,0-3.86,0.01-5.793,0.019
	C102.305,138.08,100.358,138.089,98.412,138.089L98.412,138.089z"/>
</svg>
