<?xml version="1.0" encoding="utf-8"?>
<svg version="1.1"
	 sodipodi:docname="shellext-skype-presence-invisible-alert-symbolic.svg" xmlns:dc="http://purl.org/dc/elements/1.1/" xmlns:cc="http://creativecommons.org/ns#" xmlns:rdf="http://www.w3.org/1999/02/22-rdf-syntax-ns#" xmlns:svg="http://www.w3.org/2000/svg" xmlns:sodipodi="http://sodipodi.sourceforge.net/DTD/sodipodi-0.dtd"
	 xmlns="http://www.w3.org/2000/svg" xmlns:xlink="http://www.w3.org/1999/xlink" x="0px" y="0px" width="240px" height="240px"
	 viewBox="0 0 240 240" xml:space="preserve">
<title>Skype Symbolic Icon Theme</title>
<path fill="#bebebe" d="M176.596,240c-5.697,0-10.771-0.984-15.123-2.929c-0.307,0.104-0.627,0.157-0.947,0.157
	c-0.447,0-0.896-0.103-1.309-0.31c-5.203-2.616-11.255-3.106-17.008-3.384c-3.394-0.163-6.799-0.185-9.387-0.185
	c-1.321,0-2.644,0.006-3.965,0.012c-1.33,0.007-2.659,0.013-3.988,0.013c-5.118,0-10.621-0.084-16.179-0.695
	c-20.144-2.213-39.502-10.052-55.982-22.669c-15.521-11.882-27.903-27.548-35.803-45.302c-3.955-8.886-6.756-18.213-8.327-27.723
	c-0.795-4.814-1.278-9.719-1.435-14.579c-0.149-4.583,0.097-9.157,0.335-13.582l0.156-2.949c0.351-6.644,0.715-13.512-1.64-19.484
	c-0.324-0.821-0.702-1.636-1.102-2.499c-0.401-0.866-0.816-1.759-1.19-2.699c-1.063-2.66-1.912-5.466-2.521-8.342
	c-1.21-5.708-1.493-11.631-0.838-17.606c1.136-10.382,5.185-20.683,11.708-29.788c5.08-7.09,12.04-12.926,20.686-17.347
	C43.263,2.729,53.377,0,62.801,0c1.521,0,3.044,0.072,4.527,0.215c5.569,0.534,11.222,2.203,16.8,4.961
	c3.044,1.505,5.824,2.467,8.495,2.939c1.907,0.337,3.973,0.501,6.315,0.501c1.529,0,3.159-0.066,5.129-0.212
	c1.162-0.085,2.319-0.22,3.543-0.361c1.644-0.189,3.344-0.388,5.073-0.458c2.171-0.09,4.335-0.135,6.434-0.135
	c0.841,0,1.682,0.007,2.524,0.021c12.14,0.214,23.549,2.045,33.909,5.443c18.683,6.128,36.46,18.35,50.058,34.412
	c12.617,14.902,21.308,32.755,25.132,51.628c1.954,9.644,2.63,19.488,2.008,29.262l-0.009,0.137
	c-0.303,4.76-0.615,9.682-0.537,14.461c0.059,3.505,0.419,6.255,1.133,8.654c0.499,1.675,1.232,3.303,2.008,5.026
	c0.691,1.538,1.408,3.128,1.982,4.825c1.521,4.487,2.404,9.305,2.621,14.318c0.429,9.865-1.695,20.002-6.146,29.313
	c-4.427,9.262-10.847,17.044-18.565,22.506c-7.379,5.217-16.218,9.038-25.561,11.049C185.066,239.498,180.666,240,176.596,240
	L176.596,240z M137.502,212.326c1.755,0,3.369,0.039,4.938,0.119c3.805,0.193,7.146,0.672,10.221,1.459
	c1.396,0.357,2.832,0.799,4.39,1.35c1.102,0.388,2.138,0.842,3.14,1.281c0.933,0.408,1.813,0.797,2.701,1.111
	c4.75,1.689,9.896,2.546,15.293,2.546c0.865,0,1.742-0.022,2.607-0.067c2.979-0.155,5.796-0.583,8.374-1.27
	c1.276-0.34,2.483-0.742,3.589-1.197c0.557-0.229,1.092-0.471,1.589-0.723c0.207-0.104,0.425-0.184,0.651-0.234
	c0.297-0.069,0.604-0.104,0.939-0.105c3.314-1.841,7.016-4.064,10.178-6.804c2.842-2.461,5.278-5.46,7.244-8.919
	c5.016-8.822,7.044-18.519,5.865-28.039c-0.556-4.5-1.889-8.902-4.073-13.461c-1.395-2.908-2.313-5.678-2.81-8.467
	c-0.631-3.547-0.674-7.16-0.625-10.537c0.055-3.848,0.256-7.727,0.45-11.479c0.081-1.558,0.162-3.117,0.232-4.675
	c0.364-7.988,0.444-16.496-1.41-24.596c-1.798-7.859-5.131-16.373-9.905-25.3c-4.263-7.968-9.396-14.925-15.262-20.678
	c-5.762-5.652-12.875-10.766-22.389-16.093c-8.972-5.026-17.336-8.171-25.572-9.617c-4.26-0.748-8.727-1.125-13.654-1.151
	l-0.431-0.001c-3.271,0-6.63,0.199-9.878,0.392c-1.997,0.119-4.061,0.241-6.11,0.319c-2.274,0.086-4.169,0.125-5.966,0.125
	c-7.033,0-12.705-0.666-17.848-2.097c-2.171-0.604-4.232-1.398-6.226-2.165c-1.882-0.724-3.66-1.41-5.494-1.933
	c-3.938-1.125-7.922-1.696-11.841-1.696c-0.306,0-0.611,0.004-0.917,0.011C51.368,19.923,43.379,22.726,37,27.625
	c-6.834,5.25-12.201,13.093-14.724,21.522c-2.86,9.551-2.325,20.106,1.469,28.957c0.309,0.722,0.634,1.432,0.957,2.141
	c0.978,2.14,1.989,4.353,2.605,6.865c0.867,3.528,1.012,7.093,1.042,9.805c0.05,4.555-0.147,9.135-0.338,13.564
	c-0.239,5.56-0.486,11.307-0.232,16.914c0.433,9.568,2.073,17.902,5.012,25.479c3.038,7.832,7.688,16.029,13.82,24.365
	c4.893,6.646,10.835,12.49,17.659,17.369c6.776,4.843,14.668,9.064,24.835,13.289c3.283,1.363,7.201,2.881,11.368,3.791
	c3.33,0.727,6.927,1.156,10.999,1.311c1.155,0.045,2.336,0.064,3.609,0.064c3.667,0,7.43-0.184,11.069-0.363
	C129.858,212.516,133.693,212.326,137.502,212.326L137.502,212.326z"/>
<path fill="#f57900" class="warning" d="M133,121c-7,0-13,6-13,13v93c0,7,6,13,13,13h94c7,0,13-6,13-13v-93c0-7-6-13-13-13H133z
	 M165,136h30v60h-30V136z M165,210h30v15h-30V210z"/>
</svg>
