<?xml version="1.0" encoding="utf-8"?>
<svg version="1.1"
	 sodipodi:docname="shellext-skype-presence-offline-alert-symbolic.svg" xmlns:dc="http://purl.org/dc/elements/1.1/" xmlns:cc="http://creativecommons.org/ns#" xmlns:rdf="http://www.w3.org/1999/02/22-rdf-syntax-ns#" xmlns:svg="http://www.w3.org/2000/svg" xmlns:sodipodi="http://sodipodi.sourceforge.net/DTD/sodipodi-0.dtd"
	 xmlns="http://www.w3.org/2000/svg" xmlns:xlink="http://www.w3.org/1999/xlink" x="0px" y="0px" width="240px" height="240px"
	 viewBox="0 0 240 240" xml:space="preserve">
<title>Skype Symbolic Icon Theme</title>
<path fill="#bebebe" d="M177.193,240c-1.871,0-3.738-0.109-5.554-0.326c-3.284-0.391-6.538-1.145-9.671-2.24
	c-1.297-0.453-2.598-0.975-3.881-1.555c-0.457,0.274-0.977,0.416-1.502,0.416c-0.444,0-0.893-0.102-1.308-0.31
	c-3.09-1.555-5.868-2.554-8.493-3.054c-1.994-0.381-4.175-0.564-6.664-0.564c-1.361,0-2.852,0.055-4.556,0.17
	c-1.296,0.086-2.585,0.236-3.949,0.395c-1.429,0.166-2.906,0.339-4.401,0.432c-2.438,0.154-4.908,0.232-7.343,0.234
	c-4.87,0-9.72-0.301-14.462-0.893c-18.922-2.367-36.955-9.471-52.15-20.543C45.589,206.57,38.663,200,32.674,192.631
	c-5.863-7.215-10.944-15.482-15.534-25.277c-5.048-10.768-8.275-21.912-9.595-33.123c-0.681-5.789-0.876-11.759-0.581-17.742
	c0.102-2.043,0.235-4.083,0.369-6.124c0.22-3.342,0.446-6.798,0.511-10.175c0.062-3.187,0.027-6.573-0.63-9.75
	c-0.457-2.203-1.364-4.273-2.326-6.466c-0.31-0.708-0.622-1.418-0.922-2.141c-4.412-10.604-5.171-22.942-2.139-34.742
	c2.524-9.821,7.53-19.222,14.094-26.47c5.833-6.44,13.572-11.567,23.657-15.68C47.623,1.663,55.47,0,62.901,0
	c4.286,0,8.458,0.563,12.401,1.67c2.865,0.806,5.708,1.913,8.448,3.292c1.572,0.792,2.969,1.408,4.269,1.883
	c2.749,1.004,5.824,1.576,9.142,1.701c0.591,0.021,1.183,0.032,1.775,0.032c1.375,0,2.854-0.055,4.525-0.167
	c1.209-0.081,2.419-0.226,3.701-0.38c1.545-0.185,3.144-0.376,4.769-0.45c2.412-0.11,4.799-0.166,7.1-0.166
	c3.581,0,7.101,0.136,10.462,0.403c11.422,0.909,22.571,3.537,33.139,7.811c17.734,7.173,34.316,19.99,46.691,36.092
	c11.702,15.221,19.41,33.227,22.29,52.069c0.733,4.799,1.163,9.708,1.274,14.589c0.1,4.25-0.132,8.499-0.355,12.608
	c-0.057,1.031-0.172,3.264-0.172,3.264c-0.332,6.743-0.677,13.715,1.832,19.785c0.314,0.762,0.658,1.512,1.002,2.26
	c0.504,1.103,1.026,2.244,1.48,3.455c1.01,2.688,1.801,5.516,2.354,8.403c1.098,5.745,1.268,11.683,0.503,17.647
	c-1.306,10.188-5.589,20.625-12.058,29.391c-5.145,6.969-12.207,12.719-20.992,17.092C196.202,237.404,186.349,239.999,177.193,240
	L177.193,240z M136.489,213.352c5.312,0,12.255,0.338,18.861,2.965c0.834,0.332,1.604,0.705,2.349,1.064
	c0.577,0.28,1.154,0.561,1.75,0.809c1.493,0.624,3.145,1.164,4.908,1.605c3.555,0.889,7.408,1.366,11.454,1.414h0.695
	c3.614,0,7.056-0.35,10.229-1.04c1.685-0.366,3.183-0.803,4.581-1.336c0.604-0.23,1.159-0.47,1.684-0.72
	c0.039-0.044,0.082-0.097,0.129-0.146c0.138-0.154,0.275-0.307,0.414-0.445c0.168-0.17,0.357-0.318,0.563-0.441
	c0.054-0.032,0.108-0.063,0.164-0.094c3.475-1.906,7.453-4.24,10.821-7.16c2.841-2.463,5.276-5.463,7.241-8.922
	c5.016-8.826,7.043-18.525,5.865-28.049c-0.556-4.502-1.889-8.906-4.072-13.467c-1.395-2.908-2.313-5.68-2.809-8.469
	c-0.631-3.548-0.674-7.164-0.625-10.541c0.055-3.941,0.264-7.914,0.467-11.754c0.077-1.469,0.154-2.938,0.223-4.406
	c0.362-7.701,0.444-16.774-1.688-25.674c-1.152-4.809-2.93-9.427-4.352-12.913c-1.941-4.763-3.971-9.02-6.205-13.015
	c-4.346-7.772-9.591-14.569-15.591-20.202c-5.852-5.494-13.052-10.504-22.659-15.772c-8.491-4.655-16.443-7.553-24.311-8.858
	c-4.118-0.683-8.492-1.021-13.373-1.032h-0.192c-3.335,0-6.759,0.197-10.07,0.389c-2.04,0.118-4.081,0.235-6.123,0.312
	c-2.103,0.079-4.548,0.163-6.961,0.163c-6.259,0-11.01-0.563-15.404-1.828c-1.232-0.355-2.505-0.778-4.008-1.329
	c-1.016-0.372-1.975-0.797-2.903-1.208c-1.008-0.446-1.96-0.868-2.919-1.196c-4.072-1.397-8.417-2.105-12.913-2.105
	c-9.161,0.013-18.42,2.997-26.123,8.403c-3.823,2.683-6.772,5.555-9.017,8.777c-2.252,3.232-4.034,6.963-5.298,11.088
	c-2.544,8.3-2.742,17.281-0.554,25.291c0.552,2.025,1.259,3.97,2.1,5.786c0.24,0.517,0.49,1.027,0.741,1.536
	c0.478,0.972,0.972,1.978,1.406,3.053c1.1,2.72,1.819,5.663,2.139,8.746c0.399,3.865,0.311,7.607,0.165,11.746
	c-0.067,1.911-0.156,3.822-0.245,5.731c-0.164,3.546-0.335,7.214-0.355,10.797c-0.062,10.777,0.928,19.339,3.114,26.941
	c2.292,7.967,6.159,15.904,12.172,24.979c4.629,7.373,10.122,13.729,16.362,18.951c6.18,5.174,13.626,9.766,22.763,14.039
	c8.492,3.972,15.738,6.81,23.508,7.75c2.836,0.344,5.919,0.512,9.424,0.512c3.671,0,7.442-0.184,11.087-0.357
	c3.152-0.152,6.411-0.31,9.643-0.354c0.582-0.012,1.166-0.016,1.749-0.016V213.352z M85.78,167.313
	c-2.873-0.029-5.673-0.963-8.104-2.672c-0.037,0-0.073,0-0.11,0c-0.289,0-0.576-0.043-0.852-0.127
	c-0.447-0.135-0.866-0.381-1.219-0.734l-1.714-1.727c-1.172-1.179-2.191-2.203-1.598-3.9c-1.187-4.264-0.472-10.266,4.811-18.568
	c2.592-4.074,5.69-7.732,8.687-11.27c0.854-1.007,1.707-2.016,2.549-3.033c1.559-1.883,2.849-3.455,4.078-5.126
	c0.096-0.131,0.229-0.295,0.384-0.484c0.046-0.057,0.105-0.129,0.168-0.208c-0.248-0.324-0.559-0.686-0.768-0.927
	c-0.207-0.241-0.404-0.47-0.577-0.685c-1.407-1.748-3.031-3.598-5.113-5.822c-0.903-0.966-1.831-1.914-2.76-2.864
	c-2.969-3.038-6.039-6.18-8.454-9.959c-2.423-3.796-3.589-7.843-3.465-12.029c0.153-5.145,1.603-9.111,4.308-11.788
	c2.328-2.304,5.271-3.472,8.751-3.472c5.614,0,11.362,3.079,15.193,5.661c3.612,2.434,6.865,5.332,10.011,8.133
	c1.248,1.112,2.495,2.222,3.76,3.299c1.646,1.404,3.296,2.802,4.951,4.198c0.049,0.042,0.118,0.103,0.198,0.181
	c0.22-0.183,0.432-0.367,0.593-0.508c0.239-0.208,0.467-0.405,0.681-0.58c1.729-1.409,3.568-3.044,5.787-5.144l0.768-0.729
	c3.966-3.765,8.068-7.659,13.117-10.561c2.505-1.441,7.464-3.856,12.524-3.856c4.353,0,7.875,1.793,10.183,5.186
	c2.182,3.208,3.186,7.688,2.754,12.294c-0.393,4.19-2.547,7.787-4.379,10.451c-2.78,4.044-6.07,7.585-9.252,11.01
	c-0.652,0.703-1.308,1.407-1.957,2.115c-1.453,1.583-3.15,3.476-4.717,5.5c-0.104,0.134-0.25,0.306-0.42,0.504
	c-0.088,0.102-0.227,0.265-0.366,0.434c0.249,0.327,0.565,0.694,0.776,0.938c0.206,0.24,0.403,0.47,0.576,0.685
	c1.406,1.747,3.031,3.598,5.113,5.821c0.902,0.966,1.83,1.915,2.76,2.864c2.969,3.039,6.039,6.18,8.453,9.959
	c2.436,3.814,3.6,7.871,3.463,12.061c-0.17,5.23-1.826,9.394-4.789,12.041c-2.378,2.126-5.292,3.205-8.66,3.205
	c-6.521,0-13.031-4.1-16.331-6.543c-3.079-2.279-5.798-4.929-8.427-7.492c-1.586-1.545-3.226-3.143-4.887-4.598l-0.146-0.128
	c-1.213-1.062-2.366-2.071-3.573-2.915c-3.34,2.299-6.247,5.166-9.315,8.193c-3.557,3.508-7.236,7.137-11.725,9.903
	c-4.156,2.562-7.938,3.808-11.56,3.808l-0.159,0.002V167.313z"/>
<path fill="#f57900" class="warning" d="M133,121c-7,0-13,6-13,13v93c0,7,6,13,13,13h94c7,0,13-6,13-13v-93c0-7-6-13-13-13H133z
	 M165,136h30v60h-30V136z M165,210h30v15h-30V210z"/>
</svg>
