<svg xmlns:dc="http://purl.org/dc/elements/1.1/" xmlns:cc="http://creativecommons.org/ns#" xmlns:rdf="http://www.w3.org/1999/02/22-rdf-syntax-ns#" xmlns:svg="http://www.w3.org/2000/svg" xmlns="http://www.w3.org/2000/svg" xmlns:inkscape="http://www.inkscape.org/namespaces/inkscape" version="1.1" inkscape:version="0.48" height="16" width="16">
  <metadata>
    <rdf:RDF>
      <cc:Work rdf:about="">
        <dc:format>
          image/svg+xml
        </dc:format>
        <dc:type rdf:resource="http://purl.org/dc/dcmitype/StillImage"/>
        <dc:title>
          Skype Symbolic Icon Theme
        </dc:title>
      </cc:Work>
    </rdf:RDF>
  </metadata>
  <title>
    Skype Symbolic Icon Theme
  </title>
  <g inkscape:label="status" transform="translate(-101,-277)" inkscape:groupmode="layer">
    <path inkscape:connector-curvature="0" d="m117 289q0 1.66-1.17 2.83Q114.66 293 113 293q-1.61 0-2.77-1.11-0.64 0.11-1.23 0.11-1.42 0-2.72-0.55-1.3-0.55-2.23-1.49-0.94-0.94-1.49-2.23Q102 286.42 102 285q0-0.59 0.11-1.23Q101 282.61 101 281q0-1.66 1.17-2.83Q103.34 277 105 277q1.61 0 2.77 1.11 0.64-0.11 1.23-0.11 1.42 0 2.72 0.55 1.3 0.55 2.23 1.49 0.94 0.94 1.49 2.23 0.55 1.3 0.55 2.72 0 0.59-0.11 1.23Q117 287.39 117 289zM112.47 286.03 110 284.42V282q0-0.41-0.3-0.7Q109.41 281 108.99 281q-0.41 0-0.7 0.3Q108 281.59 108 282v3 0.02 0.02q-0.02 0.64 0.53 0.94l2.89 1.89q0.38 0.22 0.8 0.11 0.42-0.11 0.64-0.49 0.22-0.38 0.1-0.8-0.12-0.42-0.49-0.64z" fill="#bebebe"/>
  </g>
  <g inkscape:label="devices" transform="translate(-101,-277)" inkscape:groupmode="layer"/>
  <g inkscape:label="apps" transform="translate(-101,-277)" inkscape:groupmode="layer"/>
  <g inkscape:label="actions" transform="translate(-101,-277)" inkscape:groupmode="layer"/>
  <g inkscape:label="places" transform="translate(-101,-277)" inkscape:groupmode="layer"/>
  <g inkscape:label="mimetypes" transform="translate(-101,-277)" inkscape:groupmode="layer"/>
  <g inkscape:label="emblems" transform="translate(-101,-277)" inkscape:groupmode="layer"/>
  <g inkscape:label="categories" transform="translate(-101,-277)" inkscape:groupmode="layer"/>
</svg>
