<svg xmlns:dc="http://purl.org/dc/elements/1.1/" xmlns:cc="http://creativecommons.org/ns#" xmlns:rdf="http://www.w3.org/1999/02/22-rdf-syntax-ns#" xmlns:svg="http://www.w3.org/2000/svg" xmlns="http://www.w3.org/2000/svg" xmlns:inkscape="http://www.inkscape.org/namespaces/inkscape" id="svg7384" version="1.1" inkscape:version="0.48" height="16" width="16">
  <metadata id="metadata90">
    <rdf:RDF>
      <cc:Work rdf:about="">
        <dc:format>
          image/svg+xml
        </dc:format>
        <dc:type rdf:resource="http://purl.org/dc/dcmitype/StillImage"/>
        <dc:title>
          Skype Symbolic Icon Theme
        </dc:title>
      </cc:Work>
    </rdf:RDF>
  </metadata>
  <title id="title9167">
    Skype Symbolic Icon Theme
  </title>
  <defs id="defs7386">
    <clipPath id="clipPath3042">
      <path d="m101 277 0 16 7 0L108 284.8c0-0.42 0.41-0.8 0.8-0.8l8.2 0L117 277z" id="path3044" inkscape:connector-curvature="0"/>
    </clipPath>
  </defs>
  <g inkscape:label="status" transform="translate(-101,-277)" inkscape:groupmode="layer" id="layer9">
    <path inkscape:connector-curvature="0" d="m117 289q0 1.66-1.17 2.83Q114.66 293 113 293q-1.61 0-2.77-1.11Q109.59 292 109 292q-1.42 0-2.72-0.55-1.3-0.55-2.23-1.49-0.94-0.94-1.49-2.23Q102 286.42 102 285q0-0.58 0.11-1.23Q101 282.61 101 281q0-1.66 1.17-2.83Q103.34 277 105 277q1.61 0 2.77 1.11Q108.41 278 109 278q1.42 0 2.72 0.55 1.3 0.55 2.23 1.49 0.94 0.94 1.49 2.23Q116 283.58 116 285q0 0.59-0.11 1.23Q117 287.39 117 289zm-2-4q0-1.62-0.8-3.01-0.8-1.38-2.19-2.19Q110.63 279 109 279q-0.8 0-1.59 0.22-0.42-0.56-1.05-0.89Q105.72 278 105 278q-1.25 0-2.12 0.88Q102 279.77 102 281q0 0.72 0.33 1.35 0.33 0.63 0.89 1.05Q103 284.2 103 285q0 1.63 0.8 3.01 0.8 1.38 2.19 2.19Q107.38 291 109 291q0.8 0 1.59-0.22 0.42 0.56 1.05 0.89Q112.27 292 113 292q1.23 0 2.12-0.87Q116 290.25 116 289q0-0.72-0.33-1.35-0.33-0.63-0.89-1.05Q115 285.8 115 285z" id="path6-2" clip-path="url(#clipPath3042)" fill="#bebebe"/>
    <path d="m109.88 285.07c-0.49 0-0.87 0.38-0.87 0.87l0 6.2c0 0.49 0.38 0.87 0.88 0.87l6.25 0c0.49 0 0.88-0.38 0.88-0.87l0-6.2c0-0.49-0.38-0.87-0.87-0.87l-6.25 0zm2.13 0.99 2 0 0 3.97-2 0 0-3.97zm0 4.96 2 0 0 0.99-2 0 0-0.99z" inkscape:connector-curvature="0" id="path10898-2-9-4" class="warning" fill="#f57900"/>
  </g>
  <g inkscape:label="devices" transform="translate(-101,-277)" inkscape:groupmode="layer" id="layer10"/>
  <g inkscape:label="apps" transform="translate(-101,-277)" inkscape:groupmode="layer" id="layer11"/>
  <g inkscape:label="actions" transform="translate(-101,-277)" inkscape:groupmode="layer" id="layer12"/>
  <g inkscape:label="places" transform="translate(-101,-277)" inkscape:groupmode="layer" id="layer13"/>
  <g inkscape:label="mimetypes" transform="translate(-101,-277)" inkscape:groupmode="layer" id="layer14"/>
  <g inkscape:label="emblems" transform="translate(-101,-277)" inkscape:groupmode="layer" id="layer15"/>
  <g inkscape:label="categories" transform="translate(-101,-277)" inkscape:groupmode="layer" id="g4953"/>
</svg>
