<svg xmlns:dc="http://purl.org/dc/elements/1.1/" xmlns:cc="http://creativecommons.org/ns#" xmlns:rdf="http://www.w3.org/1999/02/22-rdf-syntax-ns#" xmlns:svg="http://www.w3.org/2000/svg" xmlns="http://www.w3.org/2000/svg" xmlns:inkscape="http://www.inkscape.org/namespaces/inkscape" id="svg7384" version="1.1" inkscape:version="0.48" height="16" width="16">
  <metadata id="metadata90">
    <rdf:RDF>
      <cc:Work rdf:about="">
        <dc:format>
          image/svg+xml
        </dc:format>
        <dc:type rdf:resource="http://purl.org/dc/dcmitype/StillImage"/>
        <dc:title>
          Skype Symbolic Icon Theme
        </dc:title>
      </cc:Work>
    </rdf:RDF>
  </metadata>
  <title id="title9167">
    Skype Symbolic Icon Theme
  </title>
  <defs id="defs7386">
    <clipPath id="clipPath3939">
      <path d="m101 277 0 16 7 0L108 284.8c0-0.42 0.41-0.8 0.8-0.8l8.2 0L117 277z" id="path3941" inkscape:connector-curvature="0"/>
    </clipPath>
  </defs>
  <g inkscape:label="status" transform="translate(-101,-277)" inkscape:groupmode="layer" id="layer9">
    <path inkscape:connector-curvature="0" d="m117 289q0 1.66-1.17 2.83Q114.66 293 113 293q-1.61 0-2.77-1.11-0.64 0.11-1.23 0.11-1.42 0-2.72-0.55-1.3-0.55-2.23-1.49-0.94-0.94-1.49-2.23Q102 286.42 102 285q0-0.59 0.11-1.23Q101 282.61 101 281q0-1.66 1.17-2.83Q103.34 277 105 277q1.61 0 2.77 1.11 0.64-0.11 1.23-0.11 1.42 0 2.72 0.55 1.3 0.55 2.23 1.49 0.94 0.94 1.49 2.23 0.55 1.3 0.55 2.72 0 0.59-0.11 1.23Q117 287.39 117 289zM112.47 286.03 110 284.42V282q0-0.41-0.3-0.7Q109.41 281 108.99 281q-0.41 0-0.7 0.3Q108 281.59 108 282v3 0.02 0.02q-0.02 0.64 0.53 0.94l2.89 1.89q0.38 0.22 0.8 0.11 0.42-0.11 0.64-0.49 0.22-0.38 0.1-0.8-0.12-0.42-0.49-0.64z" id="path6" clip-path="url(#clipPath3939)" fill="#bebebe"/>
    <path d="m109.88 285.07c-0.49 0-0.87 0.38-0.87 0.87l0 6.2c0 0.49 0.38 0.87 0.88 0.87l6.25 0c0.49 0 0.88-0.38 0.88-0.87l0-6.2c0-0.49-0.38-0.87-0.87-0.87l-6.25 0zm2.13 0.99 2 0 0 3.97-2 0 0-3.97zm0 4.96 2 0 0 0.99-2 0 0-0.99z" inkscape:connector-curvature="0" id="path10898-2-9-4" class="warning" fill="#f57900"/>
  </g>
  <g inkscape:label="devices" transform="translate(-101,-277)" inkscape:groupmode="layer" id="layer10"/>
  <g inkscape:label="apps" transform="translate(-101,-277)" inkscape:groupmode="layer" id="layer11"/>
  <g inkscape:label="actions" transform="translate(-101,-277)" inkscape:groupmode="layer" id="layer12"/>
  <g inkscape:label="places" transform="translate(-101,-277)" inkscape:groupmode="layer" id="layer13"/>
  <g inkscape:label="mimetypes" transform="translate(-101,-277)" inkscape:groupmode="layer" id="layer14"/>
  <g inkscape:label="emblems" transform="translate(-101,-277)" inkscape:groupmode="layer" id="layer15"/>
  <g inkscape:label="categories" transform="translate(-101,-277)" inkscape:groupmode="layer" id="g4953"/>
</svg>
